<?xml version="1.0" encoding="utf-8"?>
<!-- Generator: Adobe Illustrator 18.0.0, SVG Export Plug-In . SVG Version: 6.00 Build 0)  -->
<!DOCTYPE svg PUBLIC "-//W3C//DTD SVG 1.1//EN" "http://www.w3.org/Graphics/SVG/1.1/DTD/svg11.dtd">
<svg version="1.1" id="Layer_1" xmlns="http://www.w3.org/2000/svg" xmlns:xlink="http://www.w3.org/1999/xlink" x="0px" y="0px"
	 viewBox="811 504.1 294.4 71.7" enable-background="new 811 504.1 294.4 71.7" xml:space="preserve">
<rect x="811" y="504.1" fill="#B6852D" width="294.4" height="71.7"/>
<g>
	<path fill="#FFFFFF" d="M896.1,530.7h-11c-0.2,0-0.4,0.1-0.5,0.2c-0.1,0.1-0.2,0.2-0.3,0.4l0,0l-9.6,13.1h-0.2l-9.8-13.1l0,0
		c0,0,0-0.1-0.1-0.1c-0.1-0.2-0.2-0.3-0.3-0.4c-0.1-0.1-0.3-0.2-0.5-0.2H853c-0.4,0-0.6,0.3-0.6,0.7v17.2c0,0.4,0.3,0.7,0.7,0.7h5.9
		c0.4,0,0.7-0.3,0.7-0.7l-0.2-14.5h0.1c0,0,11.4,14.8,11.5,14.9c0.2,0.2,0.3,0.2,0.6,0.2h5.6l0,0c0.3,0,0.5,0,0.6-0.2l11.4-15h0.3
		l-0.2,14.5c0,0.4,0.3,0.6,0.6,0.7h6c0.4,0,0.7-0.3,0.7-0.7l0,0v-17.2C896.8,531,896.5,530.7,896.1,530.7"/>
	<path fill="#FFFFFF" d="M1073.3,530.6c-1.2,0-2.1,0.9-2.1,1.9c0,1.1,0.9,1.9,2.1,1.9s2.1-0.9,2.1-1.9S1074.5,530.6,1073.3,530.6
		 M1073.3,534.1c-1,0-1.7-0.7-1.7-1.6c0-0.9,0.8-1.6,1.7-1.6c1,0,1.7,0.7,1.7,1.6C1075,533.4,1074.3,534.1,1073.3,534.1"/>
	<path fill="#FFFFFF" d="M1074.4,532.1c0-0.5-0.4-0.6-0.9-0.6h-1.1v2.1h0.4v-0.9h0.4l0.5,0.9h0.5l-0.6-0.9
		C1074.2,532.7,1074.4,532.5,1074.4,532.1 M1072.9,532.4v-0.6h0.6c0.2,0,0.5,0,0.5,0.3s-0.2,0.3-0.4,0.3H1072.9z"/>
	<path fill="#FFFFFF" d="M1001.3,546.9c0-0.4-0.3-0.7-0.7-0.7l0,0h-17.3c-0.4,0-0.7-0.3-0.7-0.7v-14.2c0-0.4-0.3-0.7-0.7-0.7l0,0
		H976l0,0c-0.4,0-0.7,0.3-0.7,0.7v17.3c0.1,0.3,0.3,0.6,0.7,0.6l0,0h24.6l0,0c0.4,0,0.7-0.3,0.7-0.7V546.9L1001.3,546.9z"/>
	<path fill="#FFFFFF" d="M1069.8,530.7L1069.8,530.7C1069.7,530.7,1069.7,530.7,1069.8,530.7h-7.7c-0.2,0-0.3,0.1-0.4,0.2
		c-0.1,0.1-9,7.3-9,7.3h-0.2l-8.2-6.8l0,0c-0.6-0.5-0.7-0.7-1.1-0.7h-7.6l0,0l0,0c-0.1,0-0.2,0.1-0.2,0.2v0.1l0.1,0.1l13.4,11.1v6.5
		c0,0.4,0.3,0.6,0.6,0.7h6c0.4,0,0.7-0.3,0.7-0.7v-6.4l13.6-11.1l0.1-0.1V531C1069.9,530.7,1069.9,530.7,1069.8,530.7"/>
	<path fill="#FFFFFF" d="M1032,546.2L1032,546.2h-19.2c-0.2,0-0.4-0.2-0.4-0.4l0,0v-4.1l0,0c0-0.2,0.2-0.4,0.4-0.4h18.1
		c0.4,0,0.7-0.3,0.7-0.7V539c0-0.4-0.3-0.7-0.7-0.7l0,0h-18.1c-0.2,0-0.4-0.2-0.4-0.4V534l0,0c0-0.2,0.2-0.4,0.4-0.4h19l0,0
		c0.4,0,0.7-0.3,0.7-0.7v-1.7c0-0.4-0.3-0.7-0.7-0.7h-26c-0.4,0-0.7,0.3-0.7,0.7v17.2l0,0c0,0.4,0.3,0.7,0.6,0.7h26.2
		c0.4,0,0.7-0.3,0.7-0.7v-1.7C1032.7,546.5,1032.4,546.2,1032,546.2"/>
	<path fill="#FFFFFF" d="M964.6,541.6L964.6,541.6c6.4-0.6,6.8-2.6,6.8-5.3c0-4.2-3.2-5.5-11.5-5.6h-18.7l0,0
		c-0.4,0-0.7,0.3-0.7,0.7v17.3c0,0.3,0.3,0.6,0.6,0.7h6c0.4,0,0.6-0.3,0.7-0.7v-14.5c0-0.2,0.2-0.4,0.4-0.4h9.8
		c5.2,0,6.2,0.5,6.2,3.1c0,2.7-1.3,3.2-6.7,3.2h-6.2c-0.4,0-0.6,0.3-0.6,0.7l0,0v1.7l0,0c0,0.4,0.3,0.7,0.7,0.7h7.8
		c3.5,0,4.8,1.1,4.8,2.7v2.8l0,0c0,0.4,0.3,0.7,0.7,0.7l0,0h5.9c0.4,0,0.7-0.3,0.7-0.7v-2.8C971,543.2,969.8,541.8,964.6,541.6"/>
	<path fill="#FFFFFF" d="M918.3,530.5c-13.3,0-17.7,1-17.7,6.8v5c0,6.1,4.7,7.1,17.7,7.1c12.7,0,17.9-1.1,17.9-7.1v-5
		C936.1,531.3,930.3,530.5,918.3,530.5 M928.1,542.3c0,3.6-2.5,4-9.8,4c-8,0-9.7-0.3-9.7-4v-5c0.2-2.9,1-3.7,9.7-3.7
		c7.1,0,10,0.2,9.8,3.7V542.3z"/>
</g>
</svg>
